<svg width="50" height="42" viewBox="0 0 50 42" fill="none" xmlns="http://www.w3.org/2000/svg">
<path d="M48.9401 27.7509C48.9401 29.0109 47.9201 30.0309 46.6501 30.0309C45.3801 30.0309 44.3701 29.0109 44.3701 27.7509C44.3701 26.4909 45.3901 25.4609 46.6501 25.4609C47.9101 25.4609 48.9401 26.4909 48.9401 27.7509Z" fill="#0FD577"/>
<path d="M18.05 9.91281C18.05 11.1828 17.03 12.2028 15.77 12.2028C14.51 12.2028 13.48 11.1828 13.48 9.91281C13.48 8.64281 14.51 7.63281 15.77 7.63281C17.03 7.63281 18.05 8.65281 18.05 9.91281Z" fill="#0FD577"/>
<path d="M21.4798 3.06344C21.4798 4.32344 20.4598 5.34344 19.1998 5.34344H12.3398C11.0798 5.34344 10.0498 4.32344 10.0498 3.06344C10.0498 1.80344 11.0798 0.773438 12.3398 0.773438H19.1998C20.4598 0.773438 21.4798 1.79344 21.4798 3.06344Z" fill="#0FD577"/>
<path d="M4.57 39.1884C4.57 40.4484 3.55 41.4684 2.29 41.4684C1.03 41.4684 0 40.4484 0 39.1884C0 37.9284 1.02 36.8984 2.29 36.8984C3.56 36.8984 4.57 37.9284 4.57 39.1884Z" fill="#0FD577"/>
<path d="M11.43 32.3269C11.43 33.5869 10.41 34.6169 9.14 34.6169H2.29C1.02 34.6169 0 33.5869 0 32.3269C0 31.0669 1.02 30.0469 2.29 30.0469H9.14C10.41 30.0469 11.43 31.0669 11.43 32.3269Z" fill="#0FD577"/>
<path d="M22.8599 39.1884C22.8599 40.4484 21.8299 41.4684 20.5699 41.4684H9.13986C7.87986 41.4684 6.85986 40.4484 6.85986 39.1884C6.85986 37.9284 7.87986 36.8984 9.13986 36.8984H20.5699C21.8299 36.8984 22.8599 37.9284 22.8599 39.1884Z" fill="#0FD577"/>
<path d="M22.86 32.3269C22.86 33.5869 21.83 34.6169 20.57 34.6169H16C14.74 34.6169 13.71 33.5869 13.71 32.3269C13.71 31.0669 14.74 30.0469 16 30.0469H20.57C21.83 30.0469 22.86 31.0669 22.86 32.3269Z" fill="#0FD577"/>
<path d="M38.8298 2.82906C38.8298 4.08906 37.7998 5.10906 36.5398 5.10906C35.2798 5.10906 34.2598 4.08906 34.2598 2.82906C34.2598 1.56906 35.2798 0.539062 36.5398 0.539062C37.7998 0.539062 38.8298 1.55906 38.8298 2.82906Z" fill="#0FD577"/>
<path d="M47.9698 9.67844C47.9698 10.9484 46.9498 11.9684 45.6798 11.9684H36.5398C35.2798 11.9684 34.2598 10.9484 34.2598 9.67844C34.2598 8.40844 35.2798 7.39844 36.5398 7.39844H45.6798C46.9498 7.39844 47.9698 8.41844 47.9698 9.67844Z" fill="#0FD577"/>
<path d="M47.9699 2.82906C47.9699 4.08906 46.9499 5.10906 45.6799 5.10906H43.3999C42.1399 5.10906 41.1099 4.08906 41.1099 2.82906C41.1099 1.56906 42.1399 0.539062 43.3999 0.539062H45.6799C46.9499 0.539062 47.9699 1.55906 47.9699 2.82906Z" fill="#0FD577"/>
<path d="M49.1202 31.22C49.1202 33.19 48.7402 34.93 47.9802 36.43C47.9302 36.54 47.8702 36.64 47.8102 36.74C47.0702 38.1 46.0502 39.16 44.7602 39.91C43.3802 40.73 41.7902 41.14 39.9802 41.14H36.1202C34.2902 41.14 32.6702 40.74 31.2802 39.93C30.8902 39.7 30.5202 39.45 30.1802 39.16C27.5902 37.34 25.8702 34.34 25.3402 30.56C25.2302 29.75 25.1702 28.91 25.1702 28.03L25.3002 19.43V16.27C25.3002 15.06 23.6802 14.68 23.1402 15.76L17.6202 26.8C17.4302 27.18 17.0302 27.43 16.6002 27.43H14.5802C14.1502 27.43 13.7502 27.18 13.5602 26.8L8.04016 15.76C7.50016 14.68 5.87016 15.06 5.87016 16.27V26.29C5.87016 26.92 5.36016 27.43 4.73016 27.43H1.30016C0.670156 27.43 0.160156 26.92 0.160156 26.29V1.14L1.30016 0H4.61016C5.03016 0 5.43016 0.24 5.62016 0.62L14.5702 18.02C15.0002 18.85 16.1802 18.85 16.6002 18.02L25.5602 0.62C25.7502 0.24 26.1402 0 26.5702 0H29.8702C30.5102 0 31.0202 0.51 31.0202 1.14V13.71C31.0202 14.35 31.5302 14.86 32.1602 14.86H36.1402C36.6402 14.86 37.1302 14.88 37.6002 14.92H40.0502C41.8302 14.92 43.4102 15.31 44.7602 16.09C46.0802 16.85 47.1202 17.91 47.8602 19.26C47.8902 19.29 47.9102 19.33 47.9302 19.37C48.6802 20.77 49.0502 22.4 49.0502 24.26H44.1902C44.1902 22.8 43.8202 21.64 43.0602 20.74C43.0602 20.74 43.0568 20.7333 43.0502 20.72C42.2902 19.83 41.2902 19.39 40.0502 19.39H36.2602C34.9302 19.39 33.8602 19.89 33.0502 20.91C32.7202 21.32 32.4602 21.78 32.2702 22.3C31.9702 23.05 31.8302 23.91 31.8302 24.88V31.18C31.8302 32.14 31.9702 33 32.2502 33.75C32.4402 34.27 32.6902 34.74 33.0102 35.15C33.8002 36.17 34.8302 36.67 36.1202 36.67H39.9802C41.1602 36.67 42.1302 36.23 42.9002 35.36C42.9602 35.3 43.0202 35.24 43.0702 35.17C43.8602 34.17 44.2602 32.85 44.2602 31.22H49.1202Z" fill="white"/>
</svg>
